<mxfile host="app.diagrams.net" modified="2024-05-22T20:31:12.634Z" agent="Mozilla/5.0 (Windows NT 10.0; Win64; x64) AppleWebKit/537.36 (KHTML, like Gecko) Chrome/123.0.0.0 Safari/537.36 OPR/109.0.0.0" etag="EGpEPG9xc2hjGmUWRwoq" version="24.4.6" type="github">
  <diagram id="C5RBs43oDa-KdzZeNtuy" name="Page-1">
    <mxGraphModel dx="839" dy="454" grid="1" gridSize="10" guides="1" tooltips="1" connect="1" arrows="1" fold="1" page="1" pageScale="1" pageWidth="827" pageHeight="1169" math="0" shadow="0">
      <root>
        <mxCell id="WIyWlLk6GJQsqaUBKTNV-0" />
        <mxCell id="WIyWlLk6GJQsqaUBKTNV-1" parent="WIyWlLk6GJQsqaUBKTNV-0" />
        <mxCell id="xMdBt0DJSCLVe3k7uP2l-8" style="edgeStyle=orthogonalEdgeStyle;rounded=0;orthogonalLoop=1;jettySize=auto;html=1;exitX=0.5;exitY=1;exitDx=0;exitDy=0;entryX=0.5;entryY=0;entryDx=0;entryDy=0;" edge="1" parent="WIyWlLk6GJQsqaUBKTNV-1" source="WIyWlLk6GJQsqaUBKTNV-3" target="xMdBt0DJSCLVe3k7uP2l-6">
          <mxGeometry relative="1" as="geometry" />
        </mxCell>
        <mxCell id="WIyWlLk6GJQsqaUBKTNV-3" value="What movie should you watch" style="rounded=1;whiteSpace=wrap;html=1;fontSize=12;glass=0;strokeWidth=1;shadow=0;" parent="WIyWlLk6GJQsqaUBKTNV-1" vertex="1">
          <mxGeometry x="354" y="30" width="120" height="40" as="geometry" />
        </mxCell>
        <mxCell id="xMdBt0DJSCLVe3k7uP2l-27" style="edgeStyle=orthogonalEdgeStyle;rounded=0;orthogonalLoop=1;jettySize=auto;html=1;exitX=0.5;exitY=1;exitDx=0;exitDy=0;entryX=0.5;entryY=0;entryDx=0;entryDy=0;" edge="1" parent="WIyWlLk6GJQsqaUBKTNV-1" source="WIyWlLk6GJQsqaUBKTNV-6" target="xMdBt0DJSCLVe3k7uP2l-3">
          <mxGeometry relative="1" as="geometry" />
        </mxCell>
        <mxCell id="WIyWlLk6GJQsqaUBKTNV-6" value="What year the movie came out?" style="rhombus;whiteSpace=wrap;html=1;shadow=0;fontFamily=Helvetica;fontSize=12;align=center;strokeWidth=1;spacing=6;spacingTop=-4;" parent="WIyWlLk6GJQsqaUBKTNV-1" vertex="1">
          <mxGeometry x="345" y="870" width="137.5" height="110" as="geometry" />
        </mxCell>
        <mxCell id="xMdBt0DJSCLVe3k7uP2l-19" style="edgeStyle=orthogonalEdgeStyle;rounded=0;orthogonalLoop=1;jettySize=auto;html=1;exitX=0.5;exitY=1;exitDx=0;exitDy=0;" edge="1" parent="WIyWlLk6GJQsqaUBKTNV-1" source="xMdBt0DJSCLVe3k7uP2l-1" target="xMdBt0DJSCLVe3k7uP2l-2">
          <mxGeometry relative="1" as="geometry" />
        </mxCell>
        <mxCell id="xMdBt0DJSCLVe3k7uP2l-1" value="What Main Genre would you like?" style="rhombus;whiteSpace=wrap;html=1;shadow=0;fontFamily=Helvetica;fontSize=12;align=center;strokeWidth=1;spacing=6;spacingTop=-4;" vertex="1" parent="WIyWlLk6GJQsqaUBKTNV-1">
          <mxGeometry x="339" y="510" width="150" height="120" as="geometry" />
        </mxCell>
        <mxCell id="xMdBt0DJSCLVe3k7uP2l-21" style="edgeStyle=orthogonalEdgeStyle;rounded=0;orthogonalLoop=1;jettySize=auto;html=1;exitX=1;exitY=0.5;exitDx=0;exitDy=0;entryX=0.5;entryY=0;entryDx=0;entryDy=0;" edge="1" parent="WIyWlLk6GJQsqaUBKTNV-1" source="xMdBt0DJSCLVe3k7uP2l-2" target="WIyWlLk6GJQsqaUBKTNV-6">
          <mxGeometry relative="1" as="geometry">
            <Array as="points">
              <mxPoint x="509" y="750" />
              <mxPoint x="509" y="870" />
            </Array>
          </mxGeometry>
        </mxCell>
        <mxCell id="xMdBt0DJSCLVe3k7uP2l-22" style="edgeStyle=orthogonalEdgeStyle;rounded=0;orthogonalLoop=1;jettySize=auto;html=1;exitX=0;exitY=0.5;exitDx=0;exitDy=0;entryX=0.5;entryY=0;entryDx=0;entryDy=0;" edge="1" parent="WIyWlLk6GJQsqaUBKTNV-1" source="xMdBt0DJSCLVe3k7uP2l-2" target="WIyWlLk6GJQsqaUBKTNV-6">
          <mxGeometry relative="1" as="geometry">
            <Array as="points">
              <mxPoint x="319" y="750" />
              <mxPoint x="319" y="870" />
            </Array>
          </mxGeometry>
        </mxCell>
        <mxCell id="xMdBt0DJSCLVe3k7uP2l-2" value="Would you like a second Genre for the movie?" style="rhombus;whiteSpace=wrap;html=1;shadow=0;fontFamily=Helvetica;fontSize=12;align=center;strokeWidth=1;spacing=6;spacingTop=-4;" vertex="1" parent="WIyWlLk6GJQsqaUBKTNV-1">
          <mxGeometry x="339" y="690" width="150" height="120" as="geometry" />
        </mxCell>
        <mxCell id="xMdBt0DJSCLVe3k7uP2l-3" value="How many recommendations would you like?" style="rhombus;whiteSpace=wrap;html=1;shadow=0;fontFamily=Helvetica;fontSize=12;align=center;strokeWidth=1;spacing=6;spacingTop=-4;" vertex="1" parent="WIyWlLk6GJQsqaUBKTNV-1">
          <mxGeometry x="339" y="1030" width="150" height="120" as="geometry" />
        </mxCell>
        <mxCell id="xMdBt0DJSCLVe3k7uP2l-10" style="edgeStyle=orthogonalEdgeStyle;rounded=0;orthogonalLoop=1;jettySize=auto;html=1;" edge="1" parent="WIyWlLk6GJQsqaUBKTNV-1" source="xMdBt0DJSCLVe3k7uP2l-6" target="xMdBt0DJSCLVe3k7uP2l-7">
          <mxGeometry relative="1" as="geometry" />
        </mxCell>
        <mxCell id="xMdBt0DJSCLVe3k7uP2l-6" value="How are you feeling today?" style="rhombus;whiteSpace=wrap;html=1;shadow=0;fontFamily=Helvetica;fontSize=12;align=center;strokeWidth=1;spacing=6;spacingTop=-4;" vertex="1" parent="WIyWlLk6GJQsqaUBKTNV-1">
          <mxGeometry x="339" y="140" width="150" height="120" as="geometry" />
        </mxCell>
        <mxCell id="xMdBt0DJSCLVe3k7uP2l-11" style="edgeStyle=orthogonalEdgeStyle;rounded=0;orthogonalLoop=1;jettySize=auto;html=1;exitX=0;exitY=0.5;exitDx=0;exitDy=0;entryX=0.5;entryY=0;entryDx=0;entryDy=0;" edge="1" parent="WIyWlLk6GJQsqaUBKTNV-1" source="xMdBt0DJSCLVe3k7uP2l-7" target="xMdBt0DJSCLVe3k7uP2l-1">
          <mxGeometry relative="1" as="geometry">
            <Array as="points">
              <mxPoint x="280" y="390" />
              <mxPoint x="280" y="510" />
            </Array>
          </mxGeometry>
        </mxCell>
        <mxCell id="xMdBt0DJSCLVe3k7uP2l-12" style="edgeStyle=orthogonalEdgeStyle;rounded=0;orthogonalLoop=1;jettySize=auto;html=1;exitX=1;exitY=0.5;exitDx=0;exitDy=0;entryX=0.5;entryY=0;entryDx=0;entryDy=0;" edge="1" parent="WIyWlLk6GJQsqaUBKTNV-1" source="xMdBt0DJSCLVe3k7uP2l-7" target="xMdBt0DJSCLVe3k7uP2l-1">
          <mxGeometry relative="1" as="geometry">
            <Array as="points">
              <mxPoint x="550" y="390" />
              <mxPoint x="550" y="510" />
            </Array>
          </mxGeometry>
        </mxCell>
        <mxCell id="xMdBt0DJSCLVe3k7uP2l-7" value="Would you like to choose between a set of recommended Genres" style="rhombus;whiteSpace=wrap;html=1;shadow=0;fontFamily=Helvetica;fontSize=12;align=center;strokeWidth=1;spacing=6;spacingTop=-4;" vertex="1" parent="WIyWlLk6GJQsqaUBKTNV-1">
          <mxGeometry x="326" y="320" width="175" height="140" as="geometry" />
        </mxCell>
        <mxCell id="xMdBt0DJSCLVe3k7uP2l-9" value="Recommended&amp;nbsp;&lt;div&gt;Movies&lt;/div&gt;" style="shape=parallelogram;html=1;strokeWidth=2;perimeter=parallelogramPerimeter;whiteSpace=wrap;rounded=1;arcSize=12;size=0.23;" vertex="1" parent="WIyWlLk6GJQsqaUBKTNV-1">
          <mxGeometry x="340.67" y="1210" width="133.33" height="80" as="geometry" />
        </mxCell>
        <mxCell id="xMdBt0DJSCLVe3k7uP2l-13" value="Any Answer" style="text;html=1;align=center;verticalAlign=middle;whiteSpace=wrap;rounded=0;" vertex="1" parent="WIyWlLk6GJQsqaUBKTNV-1">
          <mxGeometry x="420.33" y="270" width="60" height="30" as="geometry" />
        </mxCell>
        <mxCell id="xMdBt0DJSCLVe3k7uP2l-14" value="Yes" style="text;html=1;align=center;verticalAlign=middle;whiteSpace=wrap;rounded=0;" vertex="1" parent="WIyWlLk6GJQsqaUBKTNV-1">
          <mxGeometry x="490" y="360" width="60" height="30" as="geometry" />
        </mxCell>
        <mxCell id="xMdBt0DJSCLVe3k7uP2l-15" value="No" style="text;html=1;align=center;verticalAlign=middle;whiteSpace=wrap;rounded=0;" vertex="1" parent="WIyWlLk6GJQsqaUBKTNV-1">
          <mxGeometry x="270" y="360" width="60" height="30" as="geometry" />
        </mxCell>
        <mxCell id="xMdBt0DJSCLVe3k7uP2l-16" value="Shows a list of all Genres" style="text;html=1;align=center;verticalAlign=middle;whiteSpace=wrap;rounded=0;" vertex="1" parent="WIyWlLk6GJQsqaUBKTNV-1">
          <mxGeometry x="200" y="440" width="60" height="30" as="geometry" />
        </mxCell>
        <mxCell id="xMdBt0DJSCLVe3k7uP2l-17" value="Shows random list of Genres" style="text;html=1;align=center;verticalAlign=middle;whiteSpace=wrap;rounded=0;" vertex="1" parent="WIyWlLk6GJQsqaUBKTNV-1">
          <mxGeometry x="570" y="430" width="60" height="30" as="geometry" />
        </mxCell>
        <mxCell id="xMdBt0DJSCLVe3k7uP2l-20" value="Any Answer" style="text;html=1;align=center;verticalAlign=middle;whiteSpace=wrap;rounded=0;" vertex="1" parent="WIyWlLk6GJQsqaUBKTNV-1">
          <mxGeometry x="420" y="640" width="60" height="30" as="geometry" />
        </mxCell>
        <mxCell id="xMdBt0DJSCLVe3k7uP2l-23" value="Yes" style="text;html=1;align=center;verticalAlign=middle;whiteSpace=wrap;rounded=0;" vertex="1" parent="WIyWlLk6GJQsqaUBKTNV-1">
          <mxGeometry x="520" y="735" width="60" height="30" as="geometry" />
        </mxCell>
        <mxCell id="xMdBt0DJSCLVe3k7uP2l-24" value="Show new list of Genres" style="text;html=1;align=center;verticalAlign=middle;whiteSpace=wrap;rounded=0;" vertex="1" parent="WIyWlLk6GJQsqaUBKTNV-1">
          <mxGeometry x="530" y="800" width="60" height="30" as="geometry" />
        </mxCell>
        <mxCell id="xMdBt0DJSCLVe3k7uP2l-25" value="No" style="text;html=1;align=center;verticalAlign=middle;whiteSpace=wrap;rounded=0;" vertex="1" parent="WIyWlLk6GJQsqaUBKTNV-1">
          <mxGeometry x="270" y="720" width="60" height="30" as="geometry" />
        </mxCell>
        <mxCell id="xMdBt0DJSCLVe3k7uP2l-26" value="Goes to next question" style="text;html=1;align=center;verticalAlign=middle;whiteSpace=wrap;rounded=0;" vertex="1" parent="WIyWlLk6GJQsqaUBKTNV-1">
          <mxGeometry x="250" y="800" width="60" height="30" as="geometry" />
        </mxCell>
        <mxCell id="xMdBt0DJSCLVe3k7uP2l-28" value="Any Answer" style="text;html=1;align=center;verticalAlign=middle;whiteSpace=wrap;rounded=0;" vertex="1" parent="WIyWlLk6GJQsqaUBKTNV-1">
          <mxGeometry x="420" y="990" width="60" height="30" as="geometry" />
        </mxCell>
        <mxCell id="xMdBt0DJSCLVe3k7uP2l-29" style="edgeStyle=orthogonalEdgeStyle;rounded=0;orthogonalLoop=1;jettySize=auto;html=1;exitX=0.5;exitY=1;exitDx=0;exitDy=0;entryX=0.557;entryY=-0.025;entryDx=0;entryDy=0;entryPerimeter=0;" edge="1" parent="WIyWlLk6GJQsqaUBKTNV-1" source="xMdBt0DJSCLVe3k7uP2l-3" target="xMdBt0DJSCLVe3k7uP2l-9">
          <mxGeometry relative="1" as="geometry" />
        </mxCell>
        <mxCell id="xMdBt0DJSCLVe3k7uP2l-30" value="Any Answer" style="text;html=1;align=center;verticalAlign=middle;whiteSpace=wrap;rounded=0;" vertex="1" parent="WIyWlLk6GJQsqaUBKTNV-1">
          <mxGeometry x="420" y="1160" width="60" height="30" as="geometry" />
        </mxCell>
      </root>
    </mxGraphModel>
  </diagram>
</mxfile>
